# xmcd
#
# Track frame offsets:
#	150
#	10916
#	21208
#	38710
#	54475
#	70113
#	86062
#	105221
#	122100
#	136162
#	151942
#	173206
#	187146
#	201496
#	216030
#	232231
#	246774
#	260493
#	272148
#	290648
#	304400
#	317903
#	331494
#	343123
#
# Disc length: 4790 seconds
#
# Revision: 2
# Processed by: cddbd v1.5.2PL0 Copyright (c) Steve Scherf et al.
# Submitted via: EasyCDDAExtractor 16.0.6.1
#
DISCID=6e12b418
DTITLE=Νταλάρας Γιώργος - Latin
DYEAR=1987
DGENRE=Latin
TTITLE0=Νταλάρας Γιώργος - Los Garceros (Joropo)
TTITLE1=Νταλάρας Γιώργος - El Cascabel (Son Jarocho)
TTITLE2=Νταλάρας Γιώργος - Cancion Del Mimbÿ
TTITLE3=Νταλάρας Γιώργος - Historiade Un Amor (Bolero)
TTITLE4=Νταλάρας Γιώργος - El Preso Numero Nueve (Huapanco)
TTITLE5=Νταλάρας Γιώργος - Alma, Corazon Y Vida (Vals Peruano)
TTITLE6=Νταλάρας Γιώργος - Una Moneda Le Di (Rumba Flamenca)
TTITLE7=Νταλάρας Γιώργος - Al Bohio (Guajira)
TTITLE8=Νταλάρας Γιώργος - Que Nadie Sepa Mi Sufrir (Vals Peruano)
TTITLE9=Νταλάρας Γιώργος - Fado Corrido De Coimbra
TTITLE10=Νταλάρας Γιώργος - La Malagueña (Huapanco)
TTITLE11=Νταλάρας Γιώργος - La Bamba (Son Jarocho)
TTITLE12=Νταλάρας Γιώργος - Σε Μαγικά Νησιά (Roumba)
TTITLE13=Νταλάρας Γιώργος - Ποτέ Μην Κλαις (Bolero)
TTITLE14=Νταλάρας Γιώργος - Τι Σου'κανα Και Μ' Εγκατέλειψες (Bossa Nove)
TTITLE15=Νταλάρας-Γλυκερία - Δεν Θέλω Πια Να Ξαναρθείς (Bolero)
TTITLE16=Νταλάρας Γιώργος - Μανουέλα (Huapanco-Huasterco)
TTITLE17=Νταλάρας-Πρωτοψάλτη - Αυτό Το Μάμπο Το Μπραζιλέρο (Mambo)
TTITLE18=Νταλάρας Γιώργος - Περασμένες Μου Αγάπες (Mambo)
TTITLE19=Νταλάρας Γιώργος - Χαρά Μου (Bolero)
TTITLE20=Νταλάρας Γιώργος - Πάντα, Μικρή Μου (Canta, Morena, Canta)
TTITLE21=Νταλάρας Γιώργος - Χρόνια Σε Περίμενα, Χρόνια Σ 'αγαπούσα (Bolero)
TTITLE22=Νταλάρας Γιώργος - Γέλα, Αγάπα Και Τραγούδα (Vals Peruano)
TTITLE23=Νταλάρας Γιώργος - Παραμυθένια Ζωγραφιά (Bolero)
EXTD=1η έκδοση 1987 Minos-EMI\n
EXTT0=
EXTT1=
EXTT2=
EXTT3=
EXTT4=
EXTT5=
EXTT6=
EXTT7=
EXTT8=
EXTT9=
EXTT10=
EXTT11=
EXTT12=
EXTT13=
EXTT14=
EXTT15=
EXTT16=
EXTT17=
EXTT18=
EXTT19=
EXTT20=
EXTT21=
EXTT22=
EXTT23=
PLAYORDER=
